<svg xmlns="http://www.w3.org/2000/svg" width="800" height="600"><rect width="800" height="600" x="0" y="0" fill="#FFFFFF" id="background"/><g transform="translate(10,10)" id="visualization"><g><rect x="0" y="0" height="44.751142135622885" width="4" fill="black"><title>ACTION: 3527462771</title></rect><rect x="0" y="55.751142135622885" height="39.4430402750001" width="4" fill="black"><title>COMEDY: 3109057099</title></rect><rect x="776" y="71.5" height="145.52228009928638" width="4" fill="black"><title>COMPLETED: 11470644120</title></rect><rect x="0" y="106.19418241062299" height="36.27931203431713" width="4" fill="black"><title>DRAMA: 2859679473</title></rect><rect x="0" y="153.47349444494012" height="62.43441960924156" width="4" fill="black"><title>FANTASY: 4921328938</title></rect><rect x="0" y="226.90791405418167" height="0.2536608409022847" width="4" fill="black"><title>HEARTWARMING: 19994555</title></rect><rect x="776" y="228.02228009928638" height="56.24110791584701" width="4" fill="black"><title>HIATUS: 4433147511</title></rect><rect x="0" y="238.16157489508396" height="0.47562609556098323" width="4" fill="black"><title>HISTORICAL: 37490738</title></rect><rect x="0" y="249.63720099064494" height="6.826378434206163" width="4" fill="black"><title>HORROR: 538082262</title></rect><rect x="0" y="267.4635794248511" height="2.565032046471174" width="4" fill="black"><title>MYSTERY: 202186014</title></rect><rect x="776" y="295.2633880151334" height="213.2366119848666" width="4" fill="black"><title>ONGOING: 16808156715</title></rect><rect x="0" y="281.0286114713223" height="111.73072481241928" width="4" fill="black"><title>ROMANCE: 8807059515</title></rect><rect x="0" y="403.75933628374156" height="9.551083086532344" width="4" fill="black"><title>SF: 752854305</title></rect><rect x="0" y="424.3104193702739" height="41.87665830175189" width="4" fill="black"><title>SLICE_OF_LIFE: 3300884538</title></rect><rect x="0" y="477.1870776720258" height="9.334670952191686" width="4" fill="black"><title>SPORTS: 735795841</title></rect><rect x="0" y="497.5217486242175" height="14.625440116088384" width="4" fill="black"><title>SUPERNATURAL: 1152835281</title></rect><rect x="0" y="523.1471887403059" height="16.787257173177522" width="4" fill="black"><title>SUPER_HERO: 1323238288</title></rect><rect x="0" y="550.9344459134834" height="17.118866509321606" width="4" fill="black"><title>THRILLER: 1349377053</title></rect><rect x="0" y="579.053312422805" height="0.9466875771948935" width="4" fill="black"><title>TIPTOON: 74621675</title></rect></g><g fill="none" stroke-opacity="1"><g style="mix-blend-mode: normal;"><path d="M4,29.742315604657932C390,29.742315604657932,390,310.2722145460983,776,310.2722145460983" stroke="rgb(158, 1, 66)" stroke-width="30.017653061929913"/><title>ACTION → ONGOING: 2366110642</title></g><g style="mix-blend-mode: normal;"><path d="M4,202.9215626614361C390,202.9215626614361,390,380.98018394775374,776,380.98018394775374" stroke="rgb(240, 112, 74)" stroke-width="25.972702785491247"/><title>FANTASY → ONGOING: 2047271595</title></g><g style="mix-blend-mode: normal;"><path d="M4,364.655765154359C390,364.655765154359,390,427.4072879232254,776,427.4072879232254" stroke="rgb(245, 250, 174)" stroke-width="56.207142258765174"/><title>ROMANCE → ONGOING: 4430470203</title></g><g style="mix-blend-mode: normal;"><path d="M4,130.7099008650104C390,130.7099008650104,390,356.23023897507835,776,356.23023897507835" stroke="rgb(222, 77, 74)" stroke-width="23.52718715985955"/><title>DRAMA → ONGOING: 1854506340</title></g><g style="mix-blend-mode: normal;"><path d="M4,85.60138025158031C390,85.60138025158031,390,334.873843236106,776,334.873843236106" stroke="rgb(193, 41, 73)" stroke-width="19.185604318085275"/><title>COMEDY → ONGOING: 1512285536</title></g><g style="mix-blend-mode: normal;"><path d="M4,330.4348522218866C390,330.4348522218866,390,272.8466978433244,776,272.8466978433244" stroke="rgb(245, 250, 174)" stroke-width="12.234683606179598"/><title>ROMANCE → HIATUS: 964386357</title></g><g style="mix-blend-mode: normal;"><path d="M4,178.59114328732315C390,178.59114328732315,390,254.4817837407391,776,254.4817837407391" stroke="rgb(240, 112, 74)" stroke-width="22.688135962734624"/><title>FANTASY → HIATUS: 1788368992</title></g><g style="mix-blend-mode: normal;"><path d="M4,579.2452890655924C390,579.2452890655924,390,216.830303456499,776,216.830303456499" stroke="rgb(94, 79, 162)" stroke-width="1"/><title>TIPTOON → COMPLETED: 30264723</title></g><g style="mix-blend-mode: normal;"><path d="M4,566.9160854622916C390,566.9160854622916,390,506.8000387478662,776,506.8000387478662" stroke="rgb(69, 117, 177)" stroke-width="2.274453921027233"/><title>THRILLER → ONGOING: 179281492</title></g><g style="mix-blend-mode: normal;"><path d="M4,532.777144622115C390,532.777144622115,390,498.5055104959843,776,498.5055104959843" stroke="rgb(72, 155, 179)" stroke-width="14.314602582736667"/><title>SUPER_HERO → ONGOING: 1128333832</title></g><g style="mix-blend-mode: normal;"><path d="M4,411.6343724547834C390,411.6343724547834,390,457.1869059680986,776,457.1869059680986" stroke="rgb(224, 243, 161)" stroke-width="3.3520938309811306"/><title>SF → ONGOING: 264225350</title></g><g style="mix-blend-mode: normal;"><path d="M4,6.472115355088241C390,6.472115355088241,390,77.97211535508823,776,77.97211535508823" stroke="rgb(158, 1, 66)" stroke-width="12.944230710176482"/><title>ACTION → COMPLETED: 1020315678</title></g><g style="mix-blend-mode: normal;"><path d="M4,111.310462124606C390,111.310462124606,390,99.011334530997,776,99.011334530997" stroke="rgb(222, 77, 74)" stroke-width="10.232559427966027"/><title>DRAMA → COMPLETED: 806570977</title></g><g style="mix-blend-mode: normal;"><path d="M4,254.9335406172996C390,254.9335406172996,390,395.76368511046064,776,395.76368511046064" stroke="rgb(254, 221, 141)" stroke-width="3.0600776151029936"/><title>HORROR → ONGOING: 241207472</title></g><g style="mix-blend-mode: normal;"><path d="M4,455.17770498522475C390,455.17770498522475,390,469.8723255703902,776,469.8723255703902" stroke="rgb(190, 229, 160)" stroke-width="22.01874537360215"/><title>SLICE_OF_LIFE → ONGOING: 1735604967</title></g><g style="mix-blend-mode: normal;"><path d="M4,478.1379405843629C390,478.1379405843629,390,190.72227888068883,776,190.72227888068883" stroke="rgb(148, 212, 164)" stroke-width="1.9017258246743014"/><title>SPORTS → COMPLETED: 149901583</title></g><g style="mix-blend-mode: normal;"><path d="M4,524.3004817270446C390,524.3004817270446,390,202.6557754885188,776,202.6557754885188" stroke="rgb(72, 155, 179)" stroke-width="2.3065859734773744"/><title>SUPER_HERO → COMPLETED: 181814268</title></g><g style="mix-blend-mode: normal;"><path d="M4,60.476554189041636C390,60.476554189041636,390,89.16964276359523,776,89.16964276359523" stroke="rgb(193, 41, 73)" stroke-width="9.450824106837503"/><title>COMEDY → COMPLETED: 744951494</title></g><g style="mix-blend-mode: normal;"><path d="M4,160.36028487544797C390,160.36028487544797,390,111.01440467548787,776,111.01440467548787" stroke="rgb(240, 112, 74)" stroke-width="13.773580861015708"/><title>FANTASY → COMPLETED: 1085688351</title></g><g style="mix-blend-mode: normal;"><path d="M4,510.63040583035223C390,510.63040583035223,390,489.8314262946623,776,489.8314262946623" stroke="rgb(105, 189, 169)" stroke-width="3.0335658199073388"/><title>SUPERNATURAL → ONGOING: 239117707</title></g><g style="mix-blend-mode: normal;"><path d="M4,238.50364550944002C390,238.50364550944002,390,394.10009082170427,776,394.10009082170427" stroke="rgb(253, 190, 112)" stroke-width="1"/><title>HISTORICAL → ONGOING: 21054747</title></g><g style="mix-blend-mode: normal;"><path d="M4,482.80527606045877C390,482.80527606045877,390,484.5981708209499,776,484.5981708209499" stroke="rgb(148, 212, 164)" stroke-width="7.432945127517352"/><title>SPORTS → ONGOING: 585894258</title></g><g style="mix-blend-mode: normal;"><path d="M4,302.67306094505955C390,302.67306094505955,390,143.4256562254019,776,143.4256562254019" stroke="rgb(245, 250, 174)" stroke-width="43.288898947474515"/><title>ROMANCE → COMPLETED: 3412202955</title></g><g style="mix-blend-mode: normal;"><path d="M4,269.02361503340694C390,269.02361503340694,390,398.2987203559275,776,398.2987203559275" stroke="rgb(253, 243, 169)" stroke-width="2.0099928758306436"/><title>MYSTERY → ONGOING: 158435622</title></g><g style="mix-blend-mode: normal;"><path d="M4,502.43641897859453C390,502.43641897859453,390,196.58781214740304,776,196.58781214740304" stroke="rgb(105, 189, 169)" stroke-width="9.829340708754126"/><title>SUPERNATURAL → COMPLETED: 774787676</title></g><g style="mix-blend-mode: normal;"><path d="M4,557.3490750827104C390,557.3490750827104,390,210.22369764448456,776,210.22369764448456" stroke="rgb(69, 117, 177)" stroke-width="12.82925833845409"/><title>THRILLER → COMPLETED: 1011253099</title></g><g style="mix-blend-mode: normal;"><path d="M4,508.23235612668503C390,508.23235612668503,390,281.2008983546161,776,281.2008983546161" stroke="rgb(105, 189, 169)" stroke-width="1.7625335874269359"/><title>SUPERNATURAL → HIATUS: 138929898</title></g><g style="mix-blend-mode: normal;"><path d="M4,251.20186331986872C390,251.20186331986872,390,119.92803340927296,776,119.92803340927296" stroke="rgb(254, 221, 141)" stroke-width="3.1293246584475396"/><title>HORROR → COMPLETED: 246665799</title></g><g style="mix-blend-mode: normal;"><path d="M4,434.2261261341042C390,434.2261261341042,390,179.85570920452136,776,179.85570920452136" stroke="rgb(190, 229, 160)" stroke-width="19.831413527660626"/><title>SLICE_OF_LIFE → COMPLETED: 1563190783</title></g><g style="mix-blend-mode: normal;"><path d="M4,267.8853545167553C390,267.8853545167553,390,266.5960919614983,776,266.5960919614983" stroke="rgb(253, 243, 169)" stroke-width="1"/><title>MYSTERY → HIATUS: 21008808</title></g><g style="mix-blend-mode: normal;"><path d="M4,406.1942846545175C390,406.1942846545175,390,167.5050540699151,776,167.5050540699151" stroke="rgb(224, 243, 161)" stroke-width="4.8698967415519165"/><title>SF → COMPLETED: 383864604</title></g><g style="mix-blend-mode: normal;"><path d="M4,117.68652456183482C390,117.68652456183482,390,241.87793303612597,776,241.87793303612597" stroke="rgb(222, 77, 74)" stroke-width="2.519565446491611"/><title>DRAMA → HIATUS: 198602156</title></g><g style="mix-blend-mode: normal;"><path d="M4,13.838859891934728C390,13.838859891934728,390,228.9169092810446,776,228.9169092810446" stroke="rgb(158, 1, 66)" stroke-width="1.7892583635164927"/><title>ACTION → HIATUS: 141036451</title></g><g style="mix-blend-mode: normal;"><path d="M4,564.7712813768577C390,564.7712813768577,390,283.25581089021324,776,283.25581089021324" stroke="rgb(69, 117, 177)" stroke-width="2.0151542498403527"/><title>THRILLER → HIATUS: 158842462</title></g><g style="mix-blend-mode: normal;"><path d="M4,409.29377928229314C390,409.29377928229314,390,279.62858590341386,776,279.62858590341386" stroke="rgb(224, 243, 161)" stroke-width="1.3290925139992884"/><title>SF → HIATUS: 104764351</title></g><g style="mix-blend-mode: normal;"><path d="M4,70.60527216749904C390,70.60527216749904,390,235.2148443878415,776,235.2148443878415" stroke="rgb(193, 41, 73)" stroke-width="10.806611850077296"/><title>COMEDY → HIATUS: 851820069</title></g><g style="mix-blend-mode: normal;"><path d="M4,238.26583246165953C390,238.26583246165953,390,118.25911351347362,776,118.25911351347362" stroke="rgb(253, 190, 112)" stroke-width="1"/><title>HISTORICAL → COMPLETED: 16435991</title></g><g style="mix-blend-mode: normal;"><path d="M4,227.03474447463284C390,227.03474447463284,390,118.02802552644688,776,118.02802552644688" stroke="rgb(249, 152, 88)" stroke-width="1"/><title>HEARTWARMING → COMPLETED: 19994555</title></g><g style="mix-blend-mode: normal;"><path d="M4,253.08501372942027C390,253.08501372942027,390,266.1443398024342,776,266.1443398024342" stroke="rgb(254, 221, 141)" stroke-width="1"/><title>HORROR → HIATUS: 50208991</title></g><g style="mix-blend-mode: normal;"><path d="M4,444.1550825981791C390,444.1550825981791,390,280.30638186065806,776,280.30638186065806" stroke="rgb(190, 229, 160)" stroke-width="1"/><title>SLICE_OF_LIFE → HIATUS: 2088788</title></g><g style="mix-blend-mode: normal;"><path d="M4,267.60783493143504C390,267.60783493143504,390,121.63695124508068,776,121.63695124508068" stroke="rgb(253, 243, 169)" stroke-width="1"/><title>MYSTERY → COMPLETED: 22741584</title></g><g style="mix-blend-mode: normal;"><path d="M4,579.7186328541898C390,579.7186328541898,390,508.21863285418993,776,508.21863285418993" stroke="rgb(94, 79, 162)" stroke-width="1"/><title>TIPTOON → ONGOING: 44356952</title></g><g style="mix-blend-mode: normal;"><path d="M4,525.536809022265C390,525.536809022265,390,282.1651994568113,776,282.1651994568113" stroke="rgb(72, 155, 179)" stroke-width="1"/><title>SUPER_HERO → HIATUS: 13090188</title></g></g><g><text x="8" y="22.375571067811443" text-anchor="start"><tspan alignment-baseline="middle" x="8" style="font-family: Arial, sans-serif; font-size: 10px; fill: black; font-weight: bold;">ACTION</tspan></text><text x="8" y="75.47266227312294" text-anchor="start"><tspan alignment-baseline="middle" x="8" style="font-family: Arial, sans-serif; font-size: 10px; fill: black; font-weight: bold;">COMEDY</tspan></text><text x="772" y="144.2611400496432" text-anchor="end"><tspan alignment-baseline="middle" x="772" style="font-family: Arial, sans-serif; font-size: 10px; fill: black; font-weight: bold;">COMPLETED</tspan></text><text x="8" y="124.33383842778156" text-anchor="start"><tspan alignment-baseline="middle" x="8" style="font-family: Arial, sans-serif; font-size: 10px; fill: black; font-weight: bold;">DRAMA</tspan></text><text x="8" y="184.6907042495609" text-anchor="start"><tspan alignment-baseline="middle" x="8" style="font-family: Arial, sans-serif; font-size: 10px; fill: black; font-weight: bold;">FANTASY</tspan></text><text x="8" y="227.03474447463282" text-anchor="start"><tspan alignment-baseline="middle" x="8" style="font-family: Arial, sans-serif; font-size: 10px; fill: black; font-weight: bold;">HEARTWARMING</tspan></text><text x="772" y="256.1428340572099" text-anchor="end"><tspan alignment-baseline="middle" x="772" style="font-family: Arial, sans-serif; font-size: 10px; fill: black; font-weight: bold;">HIATUS</tspan></text><text x="8" y="238.39938794286445" text-anchor="start"><tspan alignment-baseline="middle" x="8" style="font-family: Arial, sans-serif; font-size: 10px; fill: black; font-weight: bold;">HISTORICAL</tspan></text><text x="8" y="253.05039020774802" text-anchor="start"><tspan alignment-baseline="middle" x="8" style="font-family: Arial, sans-serif; font-size: 10px; fill: black; font-weight: bold;">HORROR</tspan></text><text x="8" y="268.7460954480867" text-anchor="start"><tspan alignment-baseline="middle" x="8" style="font-family: Arial, sans-serif; font-size: 10px; fill: black; font-weight: bold;">MYSTERY</tspan></text><text x="772" y="401.8816940075667" text-anchor="end"><tspan alignment-baseline="middle" x="772" style="font-family: Arial, sans-serif; font-size: 10px; fill: black; font-weight: bold;">ONGOING</tspan></text><text x="8" y="336.89397387753195" text-anchor="start"><tspan alignment-baseline="middle" x="8" style="font-family: Arial, sans-serif; font-size: 10px; fill: black; font-weight: bold;">ROMANCE</tspan></text><text x="8" y="408.53487782700773" text-anchor="start"><tspan alignment-baseline="middle" x="8" style="font-family: Arial, sans-serif; font-size: 10px; fill: black; font-weight: bold;">SF</tspan></text><text x="8" y="445.2487485211499" text-anchor="start"><tspan alignment-baseline="middle" x="8" style="font-family: Arial, sans-serif; font-size: 10px; fill: black; font-weight: bold;">SLICE_OF_LIFE</tspan></text><text x="8" y="481.85441314812164" text-anchor="start"><tspan alignment-baseline="middle" x="8" style="font-family: Arial, sans-serif; font-size: 10px; fill: black; font-weight: bold;">SPORTS</tspan></text><text x="8" y="504.8344686822617" text-anchor="start"><tspan alignment-baseline="middle" x="8" style="font-family: Arial, sans-serif; font-size: 10px; fill: black; font-weight: bold;">SUPERNATURAL</tspan></text><text x="8" y="531.5408173268946" text-anchor="start"><tspan alignment-baseline="middle" x="8" style="font-family: Arial, sans-serif; font-size: 10px; fill: black; font-weight: bold;">SUPER_HERO</tspan></text><text x="8" y="559.4938791681442" text-anchor="start"><tspan alignment-baseline="middle" x="8" style="font-family: Arial, sans-serif; font-size: 10px; fill: black; font-weight: bold;">THRILLER</tspan></text><text x="8" y="579.5266562114025" text-anchor="start"><tspan alignment-baseline="middle" x="8" style="font-family: Arial, sans-serif; font-size: 10px; fill: black; font-weight: bold;">TIPTOON</tspan></text></g><g><text x="2" y="-4" text-anchor="middle" style="font-family: Arial, sans-serif; font-size: 12px; fill: rgb(123, 123, 123); font-weight: bold;">genre</text><text x="778" y="67.5" text-anchor="middle" style="font-family: Arial, sans-serif; font-size: 12px; fill: rgb(123, 123, 123); font-weight: bold;">status</text></g></g></svg>